<svg width="44" height="45" viewBox="0 0 44 45" fill="none" xmlns="http://www.w3.org/2000/svg">
<path d="M18.6075 14.6127C18.9506 14.7687 19.1611 15.065 19.0597 15.2755C18.9662 15.4861 18.6075 15.5328 18.2566 15.3769C17.9135 15.2209 17.703 14.9246 17.8043 14.7141C17.8979 14.5036 18.2566 14.4568 18.6075 14.6127ZM1.00048 27.4632L7.85458 23.5098C8.80589 22.9562 8.80589 22.0594 7.85458 21.5058L1.00048 17.5524C0.049168 16.9988 -0.286131 15.7746 0.267499 14.8155L4.37686 7.70404C4.93049 6.75273 6.15469 6.41743 7.1138 6.97106L13.9679 10.9322C14.9192 11.4859 15.699 11.0336 15.699 9.93415V2.00399C15.699 0.904523 16.5957 0 17.703 0H25.9138C27.0133 0 27.9178 0.896725 27.9178 2.00399V9.91856C27.9178 11.018 28.6976 11.4703 29.6489 10.9167L36.503 6.96326C37.4543 6.40963 38.6863 6.74493 39.24 7.69624L43.3493 14.8077C43.9029 15.759 43.5676 16.991 42.6163 17.5446L35.7622 21.498C34.8109 22.0516 34.8109 22.9484 35.7622 23.502L42.6163 27.4554C43.5676 28.009 43.9029 29.2332 43.3493 30.1923L39.24 37.3038C38.6863 38.2551 37.4621 38.5904 36.503 38.0367L29.6489 34.0833C28.6976 33.5297 27.9178 33.982 27.9178 35.0814V42.996C27.9178 44.0955 27.0211 45 25.9138 45H17.6952C16.5957 45 15.6912 44.0955 15.6912 42.996V35.0814C15.6912 33.982 14.9114 33.5297 13.9601 34.0833L7.10602 38.0445C6.15471 38.5982 4.92268 38.2629 4.36905 37.3116L0.267499 30.2001C-0.278334 29.241 0.049168 28.009 1.00048 27.4632ZM12.5955 19.1431C13.196 22.075 16.8686 24.196 19.629 25.6073C18.5373 26.5275 17.3443 27.5334 17.1571 28.4925C16.5489 31.6193 18.857 33.2022 21.1807 34.5902C19.3716 35.8144 17.9837 37.0542 19.2781 38.9257C19.1923 38.3253 18.8102 38.0289 19.1143 37.4675C19.6836 36.6098 20.7129 35.9314 21.8513 35.253L22.0306 42.536L22.2178 35.2062C23.3562 35.8846 24.3855 36.5708 24.947 37.4207C25.2511 37.9822 24.869 38.2863 24.7832 38.8789C26.0542 37.0309 24.7208 35.7988 22.9508 34.5902C25.2511 33.2178 27.4968 31.6349 26.8964 28.5392C26.7092 27.5645 25.4616 26.5275 24.3543 25.5918C27.1303 24.1804 30.8575 22.0438 31.4579 19.0885C32.5808 13.5912 24.4089 10.7763 23.0209 16.3282C24.2296 17.4588 27.3876 16.2346 28.2142 15.0416C32.3703 18.5739 26.4285 22.8782 23.0989 24.4533C23.0833 24.4377 23.0755 24.4299 23.0599 24.4143V24.4689V26.239C24.7364 27.2137 25.8047 28.5782 25.5941 30.1612C25.3914 31.7207 23.8163 32.8357 22.2412 33.8806L22.8338 10.3318H22.9897V9.59886C23.4732 9.25576 23.7929 8.66314 23.7929 7.98475C23.7929 6.92428 22.9976 6.06654 22.0228 6.06654C21.0481 6.06654 20.2528 6.92428 20.2528 7.98475C20.2528 8.66314 20.5725 9.25576 21.0637 9.59886V10.324H21.2197L21.8123 33.8182C20.2294 32.7734 18.6621 31.6583 18.4593 30.0988C18.2566 28.547 19.2781 27.2059 20.9078 26.2312C20.939 26.2468 20.9702 26.2623 20.9936 26.2779V26.1844V24.5079V24.3519C20.9624 24.3831 20.9312 24.4221 20.8922 24.4611C17.5548 22.8626 11.7066 18.5895 15.8393 15.0806C16.6659 16.2736 19.8239 17.4978 21.0325 16.3672C19.6524 10.8309 11.4805 13.6458 12.5955 19.1431ZM26.2648 14.6673C26.1712 14.4568 25.8125 14.41 25.4616 14.5659C25.1185 14.7219 24.908 15.0182 25.0093 15.2287C25.1107 15.4393 25.4616 15.4861 25.8125 15.3301C26.1556 15.1741 26.3583 14.8778 26.2648 14.6673Z" fill="#ED3E42"/>
</svg>
