<svg width="30" height="30" viewBox="0 0 30 30" fill="none" xmlns="http://www.w3.org/2000/svg">
<g clip-path="url(#clip0_122_3483)">
<path d="M16.6232 3.935L27.4157 22.6275C27.5803 22.9125 27.6669 23.2359 27.6669 23.565C27.6669 23.8941 27.5803 24.2174 27.4157 24.5025C27.2512 24.7875 27.0145 25.0242 26.7295 25.1888C26.4444 25.3533 26.1211 25.44 25.792 25.44H4.20698C3.87786 25.44 3.55453 25.3533 3.2695 25.1888C2.98447 25.0242 2.74778 24.7875 2.58322 24.5025C2.41866 24.2174 2.33203 23.8941 2.33203 23.565C2.33203 23.2359 2.41867 22.9125 2.58323 22.6275L13.3757 3.935C14.097 2.685 15.9007 2.685 16.6232 3.935ZM14.9995 6.1225L5.28948 22.94H24.7095L14.9995 6.1225ZM14.9995 18.75C15.331 18.75 15.6489 18.8817 15.8834 19.1161C16.1178 19.3505 16.2495 19.6685 16.2495 20C16.2495 20.3315 16.1178 20.6495 15.8834 20.8839C15.6489 21.1183 15.331 21.25 14.9995 21.25C14.668 21.25 14.35 21.1183 14.1156 20.8839C13.8812 20.6495 13.7495 20.3315 13.7495 20C13.7495 19.6685 13.8812 19.3505 14.1156 19.1161C14.35 18.8817 14.668 18.75 14.9995 18.75ZM14.9995 10C15.331 10 15.6489 10.1317 15.8834 10.3661C16.1178 10.6005 16.2495 10.9185 16.2495 11.25V16.25C16.2495 16.5815 16.1178 16.8995 15.8834 17.1339C15.6489 17.3683 15.331 17.5 14.9995 17.5C14.668 17.5 14.35 17.3683 14.1156 17.1339C13.8812 16.8995 13.7495 16.5815 13.7495 16.25V11.25C13.7495 10.9185 13.8812 10.6005 14.1156 10.3661C14.35 10.1317 14.668 10 14.9995 10Z" fill="#ED3E42"/>
</g>
<defs>
<clipPath id="clip0_122_3483">
<rect width="30" height="30" fill="white"/>
</clipPath>
</defs>
</svg>
