<svg width="22" height="22" viewBox="0 0 22 22" fill="none" xmlns="http://www.w3.org/2000/svg">
<g clip-path="url(#clip0_127_5391)">
<path fill-rule="evenodd" clip-rule="evenodd" d="M4.58333 8.25C4.58333 6.54819 5.25937 4.91609 6.46273 3.71273C7.66609 2.50937 9.29819 1.83333 11 1.83333C12.7018 1.83333 14.3339 2.50937 15.5373 3.71273C16.7406 4.91609 17.4167 6.54819 17.4167 8.25C17.4167 10.3785 16.2507 12.2467 14.7849 13.7463C13.3613 15.2011 11.7535 16.2057 11 16.6357C10.2465 16.2048 8.63867 15.2011 7.21508 13.7463C5.74933 12.2476 4.58333 10.3785 4.58333 8.25ZM11 0C8.81196 0 6.71354 0.869194 5.16637 2.41637C3.61919 3.96354 2.75 6.06196 2.75 8.25C2.75 11.0678 4.28633 13.3742 5.90517 15.0287C7.53317 16.6925 9.35 17.809 10.1493 18.2609C10.681 18.5607 11.319 18.5607 11.8497 18.2609C12.65 17.809 14.4668 16.6934 16.0948 15.0287C17.7137 13.3723 19.25 11.0678 19.25 8.25C19.25 6.06196 18.3808 3.96354 16.8336 2.41637C15.2865 0.869194 13.188 0 11 0Z" fill="white"/>
<path d="M8.40771 11.1479L13.5932 5.9625" stroke="white" stroke-width="1.5" stroke-linecap="round"/>
<path d="M8.40771 5.9624L13.5932 11.1479" stroke="white" stroke-width="1.5" stroke-linecap="round"/>
</g>
<defs>
<clipPath id="clip0_127_5391">
<rect width="22" height="22" fill="white"/>
</clipPath>
</defs>
</svg>
