<svg width="52" height="45" viewBox="0 0 52 45" fill="none" xmlns="http://www.w3.org/2000/svg">
<path d="M13.5276 25.2517C13.8806 25.2517 14.2016 25.4764 14.322 25.8054L16.288 31.1578L18.912 21.9697C19.0163 21.6086 19.3453 21.3599 19.7225 21.3518C20.0996 21.3518 20.4286 21.6006 20.5329 21.9617L21.849 26.4073L24.0557 14.8681C24.1279 14.4749 24.473 14.186 24.8662 14.178C25.2674 14.1699 25.6205 14.4428 25.7087 14.8279L29.6728 31.3343L32.5777 19.5865C32.666 19.2173 32.9869 18.9606 33.3641 18.9445C33.7412 18.9285 34.0783 19.1612 34.2067 19.5142L36.2369 25.4042H46.2835C60.0696 3.94675 44.3657 -11.7572 25.7649 11.5941C7.20428 -11.693 -8.46754 3.87453 5.14199 25.2517H13.5276Z" fill="#ED3E42"/>
<path d="M35.6428 27.1054C35.2817 27.1054 34.9608 26.8727 34.8404 26.5357L33.5484 22.7882L30.4991 35.1299C30.4028 35.507 30.0658 35.7719 29.6726 35.7719C29.2794 35.7719 28.9424 35.499 28.8461 35.1219L24.9943 19.0488L22.8679 30.1467C22.7956 30.5319 22.4666 30.8127 22.0734 30.8368C21.6802 30.8609 21.3272 30.6041 21.2148 30.2269L19.7383 25.2277L17.2026 34.1108C17.0983 34.4639 16.7853 34.7126 16.4162 34.7287C16.047 34.7367 15.718 34.52 15.5896 34.175L12.9335 26.9369H6.28125C10.3978 32.8108 16.7131 39.0539 25.7727 45C34.7521 39.11 41.0353 32.9232 45.1518 27.0974H35.6428V27.1054Z" fill="#ED3E42"/>
</svg>
