<svg width="30" height="30" viewBox="0 0 30 30" fill="none" xmlns="http://www.w3.org/2000/svg">
<path fill-rule="evenodd" clip-rule="evenodd" d="M30 15C30 23.2866 23.2866 30 15 30C6.71341 30 0 23.2866 0 15C0 6.71341 6.71341 0 15 0C23.2866 0 30 6.71341 30 15Z" fill="white"/>
<path fill-rule="evenodd" clip-rule="evenodd" d="M10.5823 5.44214H19.4085C22.2438 5.44214 24.5762 7.77445 24.5762 10.6098V19.3903C24.5762 22.2257 22.2438 24.558 19.4085 24.558H10.5823C7.74689 24.558 5.41455 22.2257 5.41455 19.3903V10.6098C5.41455 7.77445 7.74689 5.44214 10.5823 5.44214ZM20.1402 8.78055C20.7347 8.78055 21.2377 9.28361 21.2377 9.87812C21.2377 10.4726 20.7347 10.9757 20.1402 10.9757C19.4999 10.9757 19.0426 10.4726 19.0426 9.87812C19.0426 9.28361 19.4999 8.78055 20.1402 8.78055ZM14.9725 9.78665H15.0182C17.8536 9.78665 20.2316 12.1647 20.2316 15.0001C20.2316 17.8812 17.8536 20.2135 15.0182 20.2135H14.9725C12.1371 20.2135 9.80481 17.8812 9.80481 15.0001C9.80481 12.1647 12.1371 9.78665 14.9725 9.78665ZM14.9725 11.5702H15.0182C16.8932 11.5702 18.4481 13.1251 18.4481 15.0001C18.4481 16.9208 16.8932 18.4757 15.0182 18.4757H14.9725C13.0975 18.4757 11.5426 16.9208 11.5426 15.0001C11.5426 13.1251 13.0975 11.5702 14.9725 11.5702ZM10.628 7.0885H19.3627C21.3292 7.0885 22.9298 8.6891 22.9298 10.6556V19.3446C22.9298 21.3111 21.3292 22.9117 19.3627 22.9117H10.628C8.66151 22.9117 7.06091 21.3111 7.06091 19.3446V10.6556C7.06091 8.6891 8.66151 7.0885 10.628 7.0885Z" fill="#165F5D"/>
</svg>
