<svg width="45" height="45" viewBox="0 0 45 45" fill="none" xmlns="http://www.w3.org/2000/svg">
<path fill-rule="evenodd" clip-rule="evenodd" d="M9.84375 17.4431V15C9.84375 11.6434 11.1772 8.42419 13.5507 6.05068C15.9242 3.67717 19.1434 2.34375 22.5 2.34375C25.8566 2.34375 29.0758 3.67717 31.4493 6.05068C33.8228 8.42419 35.1562 11.6434 35.1562 15V17.4431C35.5819 17.4731 35.9813 17.5106 36.36 17.5631C38.0475 17.7881 39.4687 18.2756 40.5975 19.4025C41.7262 20.5313 42.21 21.9525 42.4388 23.64C42.6563 25.2656 42.6562 27.3337 42.6562 29.8969V30.1031C42.6562 32.6663 42.6563 34.7344 42.4388 36.36C42.21 38.0475 41.7262 39.4687 40.5975 40.5975C39.4687 41.7262 38.0475 42.21 36.36 42.4388C34.7344 42.6563 32.6663 42.6562 30.1031 42.6562H14.8969C12.3338 42.6562 10.2656 42.6563 8.64 42.4388C6.9525 42.21 5.53125 41.7262 4.4025 40.5975C3.27375 39.4687 2.79 38.0475 2.56312 36.36C2.34375 34.7344 2.34375 32.6663 2.34375 30.1031V29.8969C2.34375 27.3337 2.34375 25.2656 2.56312 23.64C2.78812 21.9525 3.27563 20.5313 4.4025 19.4025C5.53125 18.2738 6.9525 17.79 8.64 17.5631C9.03978 17.5096 9.44126 17.4696 9.84375 17.4431ZM12.6562 15C12.6562 12.3893 13.6934 9.88548 15.5394 8.03942C17.3855 6.19336 19.8893 5.15625 22.5 5.15625C25.1107 5.15625 27.6145 6.19336 29.4606 8.03942C31.3066 9.88548 32.3437 12.3893 32.3438 15V17.3494C31.6444 17.3438 30.8963 17.3438 30.1031 17.3438H14.8969C14.1038 17.3438 13.3575 17.3438 12.6562 17.3494V15ZM6.39187 21.3919C6.91125 20.8725 7.63875 20.535 9.01688 20.3494C10.4306 20.16 12.3094 20.1562 15 20.1562H30C32.6906 20.1562 34.5675 20.16 35.985 20.3494C37.3613 20.535 38.0887 20.8744 38.6081 21.3919C39.1275 21.9113 39.465 22.6387 39.6506 24.0169C39.84 25.4325 39.8438 27.3094 39.8438 30C39.8438 32.6906 39.84 34.5675 39.6506 35.985C39.465 37.3613 39.1256 38.0887 38.6081 38.6081C38.0887 39.1275 37.3612 39.465 35.9831 39.6506C34.5675 39.84 32.6906 39.8438 30 39.8438H15C12.3094 39.8438 10.4306 39.84 9.015 39.6506C7.63875 39.465 6.91125 39.1256 6.39187 38.6081C5.8725 38.0887 5.535 37.3612 5.34937 35.9831C5.16 34.5675 5.15625 32.6906 5.15625 30C5.15625 27.3094 5.16 25.4306 5.34937 24.015C5.535 22.6387 5.87437 21.9113 6.39187 21.3919Z" fill="#ED3E42"/>
<path d="M6.39187 21.3919C6.91125 20.8725 7.63875 20.535 9.01688 20.3494C10.4306 20.16 12.3094 20.1562 15 20.1562H30C32.6906 20.1562 34.5675 20.16 35.985 20.3494C37.3613 20.535 38.0887 20.8744 38.6081 21.3919C39.1275 21.9113 39.465 22.6387 39.6506 24.0169C39.84 25.4325 39.8438 27.3094 39.8438 30C39.8438 32.6906 39.84 34.5675 39.6506 35.985C39.465 37.3613 39.1256 38.0887 38.6081 38.6081C38.0887 39.1275 37.3612 39.465 35.9831 39.6506C34.5675 39.84 32.6906 39.8438 30 39.8438H15C12.3094 39.8438 10.4306 39.84 9.015 39.6506C7.63875 39.465 6.91125 39.1256 6.39187 38.6081C5.8725 38.0887 5.535 37.3612 5.34937 35.9831C5.16 34.5675 5.15625 32.6906 5.15625 30C5.15625 27.3094 5.16 25.4306 5.34937 24.015C5.535 22.6387 5.87437 21.9113 6.39187 21.3919Z" fill="#ED3E42"/>
<path d="M25.7474 29.1249C26.0765 28.5549 26.2498 27.9082 26.2498 27.25C26.2498 26.2554 25.8547 25.3016 25.1515 24.5984C24.4482 23.8951 23.4944 23.5 22.4998 23.5C21.6744 23.5 20.872 23.7724 20.2171 24.275C19.5622 24.7775 19.0914 25.4821 18.8778 26.2794C18.6641 27.0768 18.7195 27.9223 19.0354 28.685C19.3513 29.4476 19.91 30.0847 20.6248 30.4975V32.875C20.6248 33.3723 20.8224 33.8492 21.174 34.2008C21.5256 34.5525 22.0026 34.75 22.4998 34.75C22.9971 34.75 23.474 34.5525 23.8257 34.2008C24.1773 33.8492 24.3748 33.3723 24.3748 32.875V30.4975C24.9449 30.1684 25.4183 29.695 25.7474 29.1249Z" fill="white"/>
</svg>
