<svg width="43" height="45" viewBox="0 0 43 45" fill="none" xmlns="http://www.w3.org/2000/svg">
<path fill-rule="evenodd" clip-rule="evenodd" d="M21.4579 0C15.8111 0 10.667 1.86516 7.62296 3.38903C7.34794 3.52654 7.09166 3.66155 6.85289 3.79157C6.38036 4.04909 5.97782 4.28911 5.65779 4.50038L9.12058 9.5983L10.7507 10.2471C17.1212 13.4611 25.6645 13.4611 32.0362 10.2471L33.8864 9.28702L37.1604 4.50038C36.4823 4.05791 35.7771 3.65834 35.049 3.30402C32.02 1.7964 26.9983 0 21.4591 0H21.4579ZM13.4047 5.77048C12.1785 5.54104 10.9674 5.23712 9.77814 4.8604C12.6296 3.59405 16.8787 2.25019 21.4579 2.25019C24.6294 2.25019 27.6284 2.89524 30.1086 3.71281C27.2021 4.12159 24.1006 4.8154 21.1453 5.66922C18.8201 6.34178 16.1024 6.26927 13.4047 5.77048ZM33.3563 12.101L33.0488 12.256C26.0407 15.7913 16.745 15.7913 9.73688 12.256L9.44561 12.1085C-1.08277 23.6607 -9.12094 45 21.4579 45C52.0367 45 43.8022 23.2619 33.3563 12.101ZM20.159 22.5019C19.4959 22.5019 18.86 22.7653 18.3911 23.2342C17.9222 23.703 17.6588 24.339 17.6588 25.0021C17.6588 25.6652 17.9222 26.3011 18.3911 26.77C18.86 27.2389 19.4959 27.5023 20.159 27.5023V22.5019ZM22.6592 20.0017V18.7516H20.159V20.0017C18.8328 20.0017 17.5609 20.5285 16.6232 21.4663C15.6854 22.404 15.1586 23.6759 15.1586 25.0021C15.1586 26.3283 15.6854 27.6001 16.6232 28.5379C17.5609 29.4757 18.8328 30.0025 20.159 30.0025V35.0029C19.0714 35.0029 18.1451 34.3091 17.8001 33.3365C17.7489 33.1774 17.6663 33.0302 17.5572 32.9035C17.4481 32.7769 17.3147 32.6734 17.165 32.5992C17.0152 32.525 16.852 32.4816 16.6852 32.4715C16.5183 32.4615 16.3512 32.485 16.1936 32.5407C16.036 32.5964 15.8911 32.6831 15.7676 32.7957C15.6441 32.9084 15.5445 33.0446 15.4745 33.1964C15.4046 33.3483 15.3659 33.5126 15.3605 33.6796C15.3552 33.8467 15.3835 34.0131 15.4436 34.1691C15.7884 35.1441 16.427 35.9883 17.2715 36.5854C18.116 37.1825 19.1248 37.5031 20.159 37.5031V38.7532H22.6592V37.5031C23.9854 37.5031 25.2573 36.9763 26.195 36.0385C27.1328 35.1008 27.6596 33.8289 27.6596 32.5027C27.6596 31.1765 27.1328 29.9046 26.195 28.9669C25.2573 28.0291 23.9854 27.5023 22.6592 27.5023V22.5019C23.7468 22.5019 24.6731 23.1957 25.0182 24.1683C25.0693 24.3274 25.1519 24.4746 25.261 24.6013C25.3701 24.7279 25.5035 24.8314 25.6533 24.9056C25.803 24.9798 25.9662 25.0232 26.133 25.0333C26.2999 25.0433 26.467 25.0198 26.6246 24.9641C26.7822 24.9084 26.9271 24.8217 27.0506 24.7091C27.1741 24.5964 27.2737 24.4602 27.3437 24.3083C27.4136 24.1565 27.4524 23.9922 27.4577 23.8252C27.463 23.6581 27.4347 23.4917 27.3746 23.3357C27.0298 22.3606 26.3912 21.5165 25.5467 20.9194C24.7022 20.3223 23.6934 20.0017 22.6592 20.0017ZM22.6592 30.0025V35.0029C23.3223 35.0029 23.9582 34.7395 24.4271 34.2706C24.896 33.8017 25.1594 33.1658 25.1594 32.5027C25.1594 31.8396 24.896 31.2037 24.4271 30.7348C23.9582 30.2659 23.3223 30.0025 22.6592 30.0025Z" fill="#ED3E42"/>
</svg>
