<svg width="29" height="30" viewBox="0 0 29 30" fill="none" xmlns="http://www.w3.org/2000/svg">
<path fill-rule="evenodd" clip-rule="evenodd" d="M14.3052 0C10.5408 0 7.11131 1.24344 5.08197 2.25936C4.89862 2.35103 4.72778 2.44104 4.5686 2.52771C4.25357 2.69939 3.98521 2.85941 3.77186 3.00025L6.08039 6.39887L7.16715 6.8314C11.4142 8.97408 17.1096 8.97408 21.3575 6.8314L22.5909 6.19135L24.7736 3.00025C24.3215 2.70527 23.8514 2.4389 23.366 2.20268C21.3467 1.1976 17.9989 0 14.3061 0H14.3052ZM8.93646 3.84699C8.11899 3.69403 7.31159 3.49141 6.51876 3.24027C8.41975 2.39603 11.2525 1.50013 14.3052 1.50013C16.4196 1.50013 18.4189 1.93016 20.0724 2.47521C18.1347 2.74773 16.0671 3.21027 14.0969 3.77948C12.5468 4.22785 10.7349 4.17951 8.93646 3.84699ZM22.2376 8.06734L22.0325 8.17068C17.3605 10.5275 11.1633 10.5275 6.49126 8.17068L6.29707 8.07234C-0.721844 15.7738 -6.08062 30 14.3052 30C34.6911 30 29.2015 15.508 22.2376 8.06734ZM13.4393 15.0012C12.9973 15.0012 12.5733 15.1769 12.2607 15.4894C11.9481 15.802 11.7725 16.226 11.7725 16.6681C11.7725 17.1101 11.9481 17.5341 12.2607 17.8467C12.5733 18.1593 12.9973 18.3349 13.4393 18.3349V15.0012ZM15.1061 13.3344V12.501H13.4393V13.3344C12.5552 13.3344 11.7073 13.6857 11.0821 14.3108C10.4569 14.936 10.1057 15.7839 10.1057 16.6681C10.1057 17.5522 10.4569 18.4001 11.0821 19.0253C11.7073 19.6504 12.5552 20.0017 13.4393 20.0017V23.3353C12.7143 23.3353 12.0967 22.8727 11.8667 22.2244C11.8326 22.1183 11.7775 22.0201 11.7048 21.9357C11.6321 21.8513 11.5432 21.7823 11.4433 21.7328C11.3435 21.6833 11.2347 21.6544 11.1235 21.6477C11.0122 21.641 10.9008 21.6567 10.7957 21.6938C10.6906 21.7309 10.5941 21.7887 10.5118 21.8638C10.4294 21.9389 10.363 22.0297 10.3164 22.131C10.2697 22.2322 10.2439 22.3417 10.2404 22.4531C10.2368 22.5645 10.2557 22.6754 10.2957 22.7794C10.5256 23.4294 10.9514 23.9922 11.5143 24.3903C12.0773 24.7883 12.7498 25.0021 13.4393 25.0021V25.8355H15.1061V25.0021C15.9903 25.0021 16.8382 24.6509 17.4634 24.0257C18.0885 23.4005 18.4397 22.5526 18.4397 21.6685C18.4397 20.7843 18.0885 19.9364 17.4634 19.3113C16.8382 18.6861 15.9903 18.3349 15.1061 18.3349V15.0012C15.8312 15.0012 16.4488 15.4638 16.6788 16.1122C16.7129 16.2183 16.768 16.3164 16.8407 16.4008C16.9134 16.4853 17.0023 16.5543 17.1022 16.6037C17.202 16.6532 17.3108 16.6821 17.422 16.6888C17.5332 16.6955 17.6447 16.6799 17.7498 16.6427C17.8548 16.6056 17.9514 16.5478 18.0337 16.4727C18.1161 16.3976 18.1825 16.3068 18.2291 16.2056C18.2757 16.1044 18.3016 15.9948 18.3051 15.8834C18.3087 15.7721 18.2898 15.6611 18.2497 15.5571C18.0198 14.9071 17.5941 14.3443 17.0311 13.9463C16.4682 13.5482 15.7956 13.3345 15.1061 13.3344ZM15.1061 20.0017V23.3353C15.5482 23.3353 15.9722 23.1597 16.2847 22.8471C16.5973 22.5345 16.7729 22.1105 16.7729 21.6685C16.7729 21.2264 16.5973 20.8024 16.2847 20.4899C15.9722 20.1773 15.5482 20.0017 15.1061 20.0017Z" fill="white"/>
</svg>
