<svg width="30" height="30" viewBox="0 0 30 30" fill="none" xmlns="http://www.w3.org/2000/svg">
<path d="M15.1026 9.72594C15.1026 13.5991 18.2516 16.7481 22.1248 16.7481C23.6054 16.7481 24.9841 16.2868 26.1161 15.4982L26.3521 15.8254L26.2824 15.3748C28.0151 14.0927 29.1417 12.0381 29.1417 9.72594C29.1417 5.85809 25.9927 2.7091 22.1195 2.7091C18.2516 2.70374 15.1026 5.85273 15.1026 9.72594ZM28.0044 9.72594C28.0044 11.5177 27.1997 13.1914 25.7996 14.318L18.9222 4.79055L18.9919 4.74763C19.9307 4.15753 21.0144 3.84639 22.1248 3.84639C25.3704 3.84102 28.0044 6.48038 28.0044 9.72594ZM18.2731 5.27872L25.0592 14.8223C24.1687 15.3373 23.1602 15.6055 22.1248 15.6055C18.8793 15.6055 16.2453 12.9661 16.2453 9.72057C16.2399 8.00392 16.9802 6.39991 18.2731 5.27872ZM8.02679 0C10.8861 0 13.2089 2.31749 13.2089 5.18216C13.2089 6.81835 12.4525 8.27751 11.2616 9.22703L5.26404 0.793956C6.06873 0.289688 7.01289 0 8.02679 0ZM10.7842 9.565C9.98486 10.0693 9.03532 10.3643 8.02679 10.3643C5.16211 10.3643 2.84463 8.04147 2.84463 5.18216C2.84463 3.54597 3.60104 2.08681 4.78661 1.13729L10.7842 9.565ZM24.4638 19.8167L6.8305 14.098C4.09994 13.2129 1.14407 14.7203 0.253554 17.4563C-0.631597 20.1868 0.875842 23.1427 3.6064 24.0278L13.3484 27.1876L21.2397 29.7464C23.9702 30.6316 26.9261 29.1242 27.8166 26.3936C28.7018 23.663 27.1943 20.7018 24.4638 19.8167ZM15.5747 17.6547C16.0307 18.9798 16.0468 20.6267 15.5157 22.2683C14.9632 23.9796 13.9171 25.3475 12.71 26.1415L4.34671 23.427C2.0024 22.6706 0.709547 20.1278 1.46595 17.7889C2.22772 15.4446 4.76514 14.1463 7.10945 14.9081L15.5747 17.6547Z" fill="white"/>
</svg>
