<svg width="151" height="55" viewBox="0 0 151 55" fill="none" xmlns="http://www.w3.org/2000/svg">
<path d="M81.2677 28.0326V23.5141C81.2677 22.9107 80.5397 22.6058 80.1101 23.0288L71.8371 31.1707C71.5715 31.433 71.1485 31.433 70.8829 31.1707L62.6099 23.0288C62.1803 22.6058 61.4524 22.9107 61.4524 23.5141V28.0326C61.4524 29.1573 61.9147 30.2296 62.7279 31.0034L70.8895 38.7551C71.1518 39.0043 71.565 39.0043 71.8273 38.7551L79.9888 31.0034C80.802 30.2296 81.2644 29.1573 81.2644 28.0326H81.2677ZM66.2398 39.2207C66.8136 39.2207 67.0989 38.5256 66.689 38.1222L62.3771 33.8759C61.9705 33.4758 61.2852 33.7644 61.2852 34.3317V38.578C61.2852 38.9322 61.5737 39.2207 61.9278 39.2207H66.2398ZM108.323 39.6437C113.524 39.6437 115.416 36.9746 115.416 34.2825C115.416 30.4952 111.72 29.6525 108.959 28.9901C107.293 28.5802 105.972 28.1703 105.972 27.0522C105.972 26.2554 106.634 25.8193 107.933 25.8193C109.231 25.8193 110.622 26.5669 111.582 27.5178C111.815 27.7473 112.182 27.767 112.438 27.5572L114.517 25.8488C114.806 25.6127 114.829 25.1831 114.573 24.911C113.212 23.4551 111.159 22.1238 107.956 22.1238C104.123 22.1238 101.522 24.0158 101.522 27.4621C101.522 31.2953 105.195 32.0003 107.956 32.7085C109.622 33.1184 110.966 33.5283 110.966 34.6005C110.966 35.6728 109.917 36.0597 108.526 36.0597C106.946 36.0597 105.437 35.3023 104.421 33.971C104.224 33.7119 103.857 33.6562 103.582 33.8267L101.286 35.2531C100.975 35.4465 100.886 35.863 101.099 36.1614C102.552 38.1813 104.785 39.6404 108.32 39.6404L108.323 39.6437ZM79.5298 46.8019H73.1127V41.7292H71.9748V53.5731H73.1127V47.8413H79.5298V53.5731H80.6676V41.7292H79.5298V46.8019ZM92.036 39.5749C96.9644 39.5749 99.1089 37.0205 99.1089 32.5479V23.0813C99.1089 22.7271 98.8237 22.4418 98.4695 22.4418H95.279C94.9249 22.4418 94.6396 22.7271 94.6396 23.0813V32.5249C94.6396 34.853 93.9084 35.9023 92.0852 35.9023C90.2588 35.9023 89.5079 34.853 89.5079 32.5249V23.0813C89.5079 22.7271 89.2226 22.4418 88.8685 22.4418H85.5862C85.232 22.4418 84.9467 22.7271 84.9467 23.0813V32.5479C84.9467 37.0172 87.1142 39.5749 92.0393 39.5749H92.036ZM65.6201 41.7292H61.6819V53.5731H62.8197V48.3233H65.5086C68.0072 48.3233 69.7648 47.3462 69.7648 44.9623C69.7648 42.785 68.1974 41.7292 65.6201 41.7292ZM65.5873 47.3167H62.8197V42.7719H65.5742C67.558 42.7719 68.6302 43.3949 68.6302 44.9984C68.6302 46.71 67.5416 47.32 65.5873 47.32V47.3167ZM143.579 47.3823L140.251 41.7325H139.018L142.989 48.3594V53.5764H144.127V48.3594L148.114 41.7325H146.898L143.586 47.3823H143.579ZM122.4 41.6833L118.206 53.5764H119.311L120.577 49.9268H125.381L126.646 53.5764H127.83L123.636 41.6833H122.403H122.4ZM120.928 48.9168L122.961 43.0277H122.993L125.026 48.9168H120.928ZM80.3462 33.8759L76.0343 38.1222C75.6244 38.5256 75.9097 39.2207 76.4835 39.2207H80.7955C81.1496 39.2207 81.4382 38.9322 81.4382 38.578V34.3317C81.4382 33.7611 80.7528 33.4758 80.3462 33.8759ZM133.654 52.773C131.348 52.773 129.843 50.8515 129.843 47.5724C129.843 44.5295 131.332 42.5457 133.621 42.5457C135.431 42.5457 136.31 43.5228 136.838 45.3952L137.926 45.123C137.366 42.9293 136.038 41.5062 133.637 41.5062C130.676 41.5062 128.709 44.018 128.709 47.6052C128.709 51.3827 130.647 53.7993 133.637 53.7993C136.008 53.7993 137.543 52.3434 138.12 50.0055L137.031 49.7661C136.52 51.7499 135.415 52.7763 133.654 52.7763V52.773ZM149.436 22.4451H146.278C146.052 22.4451 145.842 22.5664 145.727 22.7599L142.953 27.4785C142.704 27.9015 142.097 27.8982 141.848 27.4785L139.094 22.7632C138.979 22.5664 138.769 22.4451 138.543 22.4451H135.339C134.841 22.4451 134.536 22.9862 134.791 23.4124L140.005 32.1249C140.064 32.2232 140.097 32.338 140.097 32.4528V38.6862C140.097 39.0404 140.382 39.3256 140.736 39.3256H144.019C144.373 39.3256 144.658 39.0404 144.658 38.6862V32.456C144.658 32.3413 144.691 32.2265 144.75 32.1281L149.983 23.419C150.239 22.9927 149.931 22.4484 149.436 22.4484V22.4451ZM132.591 38.6862V23.0845C132.591 22.7304 132.306 22.4451 131.952 22.4451H128.67C128.315 22.4451 128.03 22.7304 128.03 23.0845V28.0785C128.03 28.4327 127.745 28.7179 127.391 28.7179H123.059C122.705 28.7179 122.42 28.4327 122.42 28.0785V23.0845C122.42 22.7304 122.134 22.4451 121.78 22.4451H118.498C118.144 22.4451 117.859 22.7304 117.859 23.0845V38.6862C117.859 39.0404 118.144 39.3256 118.498 39.3256H121.78C122.134 39.3256 122.42 39.0404 122.42 38.6862V33.1446C122.42 32.7905 122.705 32.5052 123.059 32.5052H127.391C127.745 32.5052 128.03 32.7905 128.03 33.1446V38.6862C128.03 39.0404 128.315 39.3256 128.67 39.3256H131.952C132.306 39.3256 132.591 39.0404 132.591 38.6862ZM86.9404 41.6833L82.7465 53.5764H83.8515L85.1172 49.9268H89.9178L91.1835 53.5764H92.3672L88.1733 41.6833H86.9404ZM85.4681 48.9168L87.5011 43.0277H87.5339L89.5669 48.9168H85.4681ZM102.549 44.9295C102.549 42.8473 101.076 41.7292 98.4334 41.7292H94.4625V53.5731H95.584V48.2578H98.5285L101.427 53.5731H102.709L99.7156 48.1299C101.427 47.8085 102.549 46.8478 102.549 44.9295ZM98.3547 47.2511H95.5872V42.7686H98.3416C100.325 42.7686 101.414 43.3457 101.414 44.9787C101.414 46.6904 100.309 47.2511 98.358 47.2511H98.3547ZM110.681 52.1008H110.648L106.677 41.7292H105.205V53.5731H106.261V43.6179H106.293C106.549 44.4672 106.743 44.9623 107.031 45.7296L110.104 53.5731H111.143L114.215 45.7296C114.504 44.9623 114.793 44.1753 114.953 43.6474H114.986V53.5731H116.124V41.7292H114.619L110.681 52.1008Z" fill="white"/>
<path d="M11.3879 15.5722C15.4867 19.0381 23.9827 19.3365 23.986 19.3365C23.986 19.3365 21.8776 11.8177 17.7788 8.35175C13.6799 4.8858 5.18394 4.5874 5.18066 4.5874C5.18066 4.5874 7.28909 12.1063 11.3879 15.5722Z" fill="white"/>
<path d="M28.3079 16.1001C28.3079 16.1001 31.5116 11.6668 31.5312 8.05005C31.5509 4.43326 28.3079 0.00327904 28.3079 0C28.3079 0 25.0486 4.43326 25.0289 8.05005C25.0092 11.6668 28.3079 16.0968 28.3079 16.1001Z" fill="white"/>
<path d="M0 22.8091C0 65.5252 56.4914 65.9351 56.4914 22.8091H0ZM22.7107 47.5987C20.9039 47.5495 20.0645 47.5036 18.0347 47.1527C17.6183 47.0806 17.2019 46.6445 17.133 46.2346C16.8149 44.277 16.7461 43.7458 16.6805 41.8833C16.6608 41.2603 17.4281 40.916 17.9233 41.4111C20.0284 43.5228 21.2154 44.4409 23.1435 46.3821C23.5993 46.8412 23.3074 47.6118 22.7074 47.5954L22.7107 47.5987ZM27.7342 47.1134C24.1731 43.7327 22.1598 41.8079 18.3003 38.1288C17.3363 37.2106 16.8379 36.0433 16.8379 34.8202C16.8379 32.8495 16.8018 31.8888 16.9264 30.0066C16.969 29.377 17.8216 29.0589 18.2905 29.5344C21.8778 33.2004 24.1206 35.2957 27.7276 38.8469C28.0161 39.1322 28.4785 39.1322 28.767 38.8469C32.374 35.2957 34.6136 33.2496 38.2107 29.4393C38.6796 28.9442 39.5322 29.2557 39.5748 29.9082C39.6961 31.8658 39.6568 32.8462 39.6568 34.8169C39.6568 36.04 39.1583 37.2074 38.1943 38.1255C34.3349 41.8046 32.3183 43.7294 28.7605 47.1101C28.4752 47.3822 28.026 47.3822 27.7374 47.1101L27.7342 47.1134ZM39.3846 46.3231C39.3059 46.6871 38.896 47.0773 38.496 47.1429C36.5449 47.4675 35.653 47.5298 33.8069 47.5921C33.1938 47.6118 32.8986 46.8543 33.3643 46.4084C35.335 44.5327 36.5187 43.795 38.5812 41.5619C39.0665 41.0373 39.8371 41.4406 39.824 42.1128C39.7879 44.1229 39.7617 44.5721 39.3846 46.3198V46.3231Z" fill="white"/>
<path d="M42.48 9.53556L31.4395 19.3792H41.8045L45.9689 11.3849C44.9163 11.0767 44.3294 10.5553 44.3294 10.5553C45.8345 10.7226 46.5755 10.6144 46.8018 10.5849C48.3626 10.2996 49.6086 9.31914 49.9333 7.92883C50.4022 5.91549 48.7561 3.81363 46.2607 3.23324C43.7654 2.65285 41.3618 3.81363 40.8929 5.82696C40.5749 7.19432 41.2438 8.58792 42.48 9.53228V9.53556Z" fill="white"/>
<path d="M28.3343 28.6523C24.006 23.219 20.5466 29.5475 28.3343 34.6595C36.122 29.5475 32.6627 23.219 28.3343 28.6523Z" fill="#ED3E42"/>
</svg>
