<svg width="83" height="80" viewBox="0 0 83 80" fill="none" xmlns="http://www.w3.org/2000/svg">
<path d="M16.5643 22.6505C22.5262 27.6919 34.8841 28.1259 34.8888 28.1259C34.8888 28.1259 31.822 17.1894 25.8601 12.148C19.8982 7.10664 7.54041 6.67261 7.53564 6.67261C7.53564 6.67261 10.6024 17.6091 16.5643 22.6505Z" fill="white"/>
<path d="M41.1754 23.4183C41.1754 23.4183 45.8352 16.9699 45.8638 11.7092C45.8925 6.44838 41.1754 0.00476952 41.1754 0C41.1754 0 36.4345 6.44838 36.4059 11.7092C36.3773 16.9699 41.1754 23.4136 41.1754 23.4183Z" fill="white"/>
<path d="M0 33.1768C0 95.3093 82.1693 95.9055 82.1693 33.1768H0ZM33.0337 69.2343C30.4057 69.1628 29.1847 69.096 26.2323 68.5857C25.6266 68.4807 25.0209 67.8464 24.9207 67.2502C24.4581 64.4028 24.3579 63.6301 24.2625 60.921C24.2339 60.0148 25.35 59.514 26.0702 60.2342C29.1322 63.3058 30.8588 64.6413 33.6633 67.4648C34.3262 68.1326 33.9017 69.2534 33.0289 69.2295L33.0337 69.2343ZM40.3406 68.5284C35.1609 63.6111 32.2324 60.8113 26.6187 55.4599C25.2164 54.1245 24.4915 52.4265 24.4915 50.6475C24.4915 47.781 24.439 46.3836 24.6202 43.6459C24.6823 42.7301 25.9223 42.2675 26.6044 42.959C31.8222 48.2914 35.0846 51.3391 40.331 56.5045C40.7508 56.9194 41.4233 56.9194 41.843 56.5045C47.0894 51.3391 50.347 48.3629 55.5792 42.8207C56.2612 42.1005 57.5013 42.5536 57.5633 43.5028C57.7398 46.3502 57.6826 47.7763 57.6826 50.6427C57.6826 52.4218 56.9576 54.1197 55.5553 55.4552C49.9416 60.8066 47.0084 63.6063 41.8334 68.5237C41.4185 68.9195 40.7651 68.9195 40.3454 68.5237L40.3406 68.5284ZM57.2867 67.379C57.1722 67.9084 56.576 68.476 55.9941 68.5714C53.1563 69.0435 51.859 69.1342 49.1737 69.2248C48.2818 69.2534 47.8526 68.1516 48.5298 67.503C51.3963 64.7748 53.1181 63.7017 56.1182 60.4536C56.824 59.6905 57.9449 60.2772 57.9258 61.2549C57.8733 64.1786 57.8352 64.8321 57.2867 67.3742V67.379Z" fill="white"/>
<path d="M61.789 13.8696L45.73 28.1877H60.8064L66.8637 16.5596C65.3327 16.1112 64.479 15.3529 64.479 15.3529C66.6682 15.5961 67.7461 15.4387 68.0752 15.3958C70.3455 14.9809 72.1579 13.5548 72.6301 11.5325C73.3121 8.60402 70.9178 5.54677 67.2882 4.70256C63.6586 3.85836 60.1625 5.54676 59.4805 8.47524C59.0179 10.4641 59.9908 12.4912 61.789 13.8648V13.8696Z" fill="white"/>
<path d="M41.2135 41.6759C34.9177 33.7728 29.8859 42.978 41.2135 50.4136C52.5411 42.978 47.5093 33.7728 41.2135 41.6759Z" fill="#FF2038"/>
</svg>
