<svg width="28" height="26" viewBox="0 0 28 26" fill="none" xmlns="http://www.w3.org/2000/svg">
<path d="M0 26V23.2459H2.75415V3.73961C2.7541 3.4171 2.86724 3.10481 3.07385 2.85718C3.28046 2.60955 3.56743 2.44229 3.88472 2.38457L16.9284 0.0132446C17.0474 -0.00832277 17.1696 -0.00350364 17.2866 0.0273617C17.4035 0.0582271 17.5122 0.114386 17.6051 0.191874C17.698 0.269361 17.7727 0.366288 17.824 0.47581C17.8753 0.585333 17.9019 0.70478 17.902 0.825718V2.58975H23.4103C23.7755 2.58975 24.1257 2.73483 24.384 2.99309C24.6422 3.25134 24.7873 3.6016 24.7873 3.96682V23.2459H27.5415V26H22.0332V5.3439H17.902V26H0ZM13.7707 12.2293H11.0166V14.9834H13.7707V12.2293Z" fill="white"/>
</svg>
