<svg width="22" height="22" viewBox="0 0 22 22" fill="none" xmlns="http://www.w3.org/2000/svg">
<g clip-path="url(#clip0_127_5383)">
<path fill-rule="evenodd" clip-rule="evenodd" d="M4.58333 8.25C4.58333 6.54819 5.25937 4.91609 6.46273 3.71273C7.66609 2.50937 9.29819 1.83333 11 1.83333C12.7018 1.83333 14.3339 2.50937 15.5373 3.71273C16.7406 4.91609 17.4167 6.54819 17.4167 8.25C17.4167 10.3785 16.2507 12.2467 14.7849 13.7463C13.3613 15.2011 11.7535 16.2057 11 16.6357C10.2465 16.2048 8.63867 15.2011 7.21508 13.7463C5.74933 12.2476 4.58333 10.3785 4.58333 8.25ZM11 0C8.81196 0 6.71354 0.869194 5.16637 2.41637C3.61919 3.96354 2.75 6.06196 2.75 8.25C2.75 11.0678 4.28633 13.3742 5.90517 15.0287C7.53317 16.6925 9.35 17.809 10.1493 18.2609C10.681 18.5607 11.319 18.5607 11.8498 18.2609C12.65 17.809 14.4668 16.6934 16.0948 15.0287C17.7137 13.3723 19.25 11.0678 19.25 8.25C19.25 6.06196 18.3808 3.96354 16.8336 2.41637C15.2865 0.869194 13.188 0 11 0ZM15.1195 6.78058C15.2046 6.69542 15.2721 6.59432 15.3181 6.48306C15.3642 6.37181 15.3879 6.25258 15.3878 6.13218C15.3878 6.01177 15.364 5.89256 15.3179 5.78134C15.2718 5.67011 15.2042 5.56907 15.119 5.48396C15.0339 5.39885 14.9328 5.33135 14.8215 5.28531C14.7103 5.23928 14.591 5.2156 14.4706 5.21565C14.3502 5.21569 14.231 5.23945 14.1198 5.28556C14.0086 5.33168 13.9075 5.39925 13.8224 5.48442L9.93208 9.37475L8.31142 7.75408C8.13941 7.5822 7.90617 7.48569 7.66301 7.48577C7.41985 7.48586 7.18667 7.58254 7.01479 7.75454C6.84291 7.92655 6.7464 8.15978 6.74648 8.40295C6.74657 8.64611 6.84325 8.87928 7.01525 9.05117L9.21892 11.2548C9.31256 11.3485 9.42373 11.4228 9.5461 11.4735C9.66847 11.5242 9.79963 11.5503 9.93208 11.5503C10.0645 11.5503 10.1957 11.5242 10.3181 11.4735C10.4404 11.4228 10.5516 11.3485 10.6453 11.2548L15.1195 6.78058Z" fill="white"/>
</g>
<defs>
<clipPath id="clip0_127_5383">
<rect width="22" height="22" fill="white"/>
</clipPath>
</defs>
</svg>
