<svg width="42" height="45" viewBox="0 0 42 45" fill="none" xmlns="http://www.w3.org/2000/svg">
<path d="M20.8224 28.2504C17.6434 28.2504 15.0609 25.6679 15.0609 22.4888C15.0609 19.3098 17.6434 16.7273 20.8224 16.7273C24.0014 16.7273 26.5839 19.3098 26.5839 22.4888C26.5839 25.6679 24.009 28.2504 20.8224 28.2504ZM15.6575 1.90444C13.9358 1.90444 12.5464 3.29387 12.5464 5.01553C12.5464 6.73719 13.9358 8.12659 15.6575 8.12659C17.3791 8.12659 18.7685 6.73719 18.7685 5.01553C18.7685 3.29387 17.3791 1.90444 15.6575 1.90444ZM0.419271 28.3032C1.2801 29.7908 3.18298 30.2967 4.67055 29.4434C6.15812 28.5826 6.67161 26.6797 5.81078 25.1921C4.94995 23.7046 3.04706 23.1911 1.55949 24.0519C0.064364 24.9128 -0.441558 26.8156 0.419271 28.3032ZM2.84318 30.7196C2.80542 31.4294 2.91869 32.0939 3.26604 32.6527C4.3232 34.2233 6.20344 34.6764 8.15918 34.7821C9.57879 34.8651 11.0664 34.7745 12.569 34.548C12.335 33.6268 12.1537 32.7282 12.0027 31.8975C11.7837 30.6818 11.5949 29.3679 11.4439 27.971C10.281 27.1706 9.21633 26.3626 8.25734 25.5546C7.60794 25.0034 6.91325 24.3842 6.22609 23.7046C6.15058 23.8027 6.06751 23.9009 5.992 24.0066C5.57669 23.5687 5.07076 23.2288 4.51953 23.025C4.68566 22.8362 4.85178 22.655 5.02546 22.4737C2.54113 19.7629 0.404162 16.4253 0.683554 13.2991C0.751514 12.5062 1.00825 11.6756 1.48397 10.9734C1.93704 10.3089 2.45807 9.79538 3.32645 9.29701C5.89384 7.84719 9.55613 8.10394 12.8937 8.88171C12.9692 8.62497 13.0523 8.36068 13.1354 8.10394C13.5884 8.47395 14.1321 8.74579 14.7211 8.88171C14.6607 9.02518 14.6003 9.16865 14.5474 9.30457C15.4083 9.55376 16.2313 9.82559 16.9865 10.0974C18.2853 10.5807 19.5689 11.0866 20.83 11.6379C22.1288 11.064 23.3747 10.5656 24.5451 10.1352C25.338 9.84825 26.2064 9.56131 27.1201 9.30457C26.9917 8.97987 26.8558 8.65517 26.7199 8.33802C26.2517 7.28087 25.7231 6.28411 25.119 5.36288C24.0468 3.72428 22.7102 2.31976 20.83 2.19139C20.173 2.16874 19.5463 2.40284 18.9497 2.7955C18.5344 2.1763 17.9455 1.67792 17.2583 1.37588C18.474 0.416885 19.6898 0.0166695 20.4826 0.0015672C22.0306 -0.0286373 23.7145 0.364017 25.4664 2.38017C26.1233 3.13528 26.7048 4.01121 27.2107 4.9702C27.8374 6.16328 28.3585 7.48475 28.7889 8.88171C30.1783 8.56456 31.6206 8.33046 33.0175 8.2776C35.1998 8.19454 37.2688 8.54189 38.8319 9.64436C39.4813 10.0974 40.0703 10.7317 40.4478 11.4944C40.7952 12.2193 40.9764 12.9291 40.9764 13.9334C40.9462 16.8708 38.9074 19.8988 36.5816 22.3982C38.1749 24.0972 39.4813 25.9095 40.2666 27.7671C40.3723 28.0163 40.4705 28.2655 40.5535 28.5147C41.4295 31.0292 40.9235 32.6904 40.1231 34.0194C39.7154 34.699 38.7564 35.5523 37.3217 36.1186C37.3972 35.3711 37.2688 34.6084 36.9365 33.9364C37.5708 33.6192 38.0919 33.1888 38.4015 32.6074C39.2321 30.9083 38.6809 29.0508 37.7974 27.3065C37.6162 26.9516 37.4274 26.5891 37.2159 26.2418C36.6874 25.3432 36.0682 24.4672 35.3886 23.614C34.7316 24.2482 34.0671 24.8372 33.4479 25.3658C32.4059 26.2342 31.3261 27.0875 30.216 27.903C30.0575 29.2773 29.8536 30.6441 29.6195 31.9957C29.476 32.781 29.3023 33.6343 29.0834 34.5027C29.2344 34.5253 29.3854 34.548 29.5364 34.5631C29.3628 35.1445 29.325 35.7486 29.4156 36.3301C29.1513 36.2772 28.887 36.2168 28.6227 36.1488C28.2829 37.2664 27.8676 38.3915 27.3768 39.4487C26.4254 41.4724 25.1568 43.2394 23.4804 44.2286C22.612 44.7345 21.9022 44.9232 21.1018 44.9912C20.2561 45.0441 19.4104 44.8553 18.6855 44.5155C16.5787 43.5414 15.0685 41.3742 13.9887 38.8975C13.6035 38.0215 13.2788 37.1078 12.9994 36.2017C10.4321 36.7982 7.90999 37.0097 5.70506 36.5717C5.10852 36.4584 4.57994 36.2999 4.11932 36.1111C2.57134 35.4843 1.73317 34.4951 1.15928 33.4455C0.774171 32.7508 0.51743 31.4973 0.743964 29.9645C1.37826 30.41 2.09562 30.6743 2.84318 30.7196ZM13.8754 34.3215C14.8495 34.1327 15.8236 33.8911 16.7901 33.6117C17.6963 33.3474 18.6024 33.0302 19.4934 32.6753C18.3532 32.1014 17.2583 31.52 16.2162 30.931C14.9779 30.2363 13.815 29.5265 12.7201 28.8167C12.9466 30.6818 13.3166 32.5168 13.8754 34.3215ZM29.393 22.5946C29.3779 20.9409 29.3175 19.2872 29.1513 17.6637C27.8601 16.7273 26.4933 15.8589 25.0888 15.0283C23.7296 14.243 22.3478 13.5181 20.9281 12.8687C20.5506 13.0424 20.1655 13.2236 19.7879 13.4048C18.7081 13.9334 17.6434 14.4998 16.5938 15.0887C15.2119 15.9269 13.8829 16.7877 12.6068 17.7165C12.4407 19.3174 12.3576 20.9409 12.3199 22.587C12.3425 24.1727 12.4029 25.7434 12.5464 27.2914C13.7848 28.1673 15.0836 28.9904 16.4126 29.7832C17.9077 30.6063 19.4179 31.369 20.9583 32.0486C21.5851 31.7692 22.2043 31.4671 22.8235 31.1575C23.6541 30.7347 24.4696 30.2967 25.2776 29.8361C26.6293 29.0508 27.9356 28.2277 29.1891 27.3367C29.3326 25.766 29.393 24.1879 29.393 22.5946ZM11.2929 26.3777C11.1041 24.0293 11.0437 21.477 11.1796 18.7888C9.72227 19.9441 8.36305 21.2051 7.12467 22.6248C8.40836 24.0066 9.80532 25.245 11.2929 26.3777ZM12.267 10.1579C9.80533 9.78029 6.38466 9.61415 4.22504 10.845C3.19053 11.434 2.59399 12.3779 2.48827 13.4652C2.26929 15.5493 3.68136 18.1243 4.88954 19.8459C5.2671 20.3896 5.6673 20.9107 6.07506 21.409C6.51303 20.9786 6.97365 20.5558 7.43427 20.1404C8.70286 19.0078 10.0394 17.9506 11.3231 17.0294C11.4213 16.0779 11.5496 15.0887 11.7082 14.0844C11.9196 12.7932 12.1915 11.4793 12.5313 10.1956C12.4407 10.188 12.3501 10.173 12.267 10.1579ZM14.117 10.5203C13.5054 12.3175 13.0901 14.1448 12.8182 16.0024C15.1138 14.5073 17.3716 13.2765 19.5161 12.2571C17.7642 11.5322 15.9595 10.9432 14.117 10.5203ZM22.2647 12.2873C23.3747 12.8083 24.4621 13.3746 25.5419 13.9938C26.6141 14.6055 27.777 15.3077 28.9626 16.1006C28.8266 15.202 28.6605 14.311 28.4491 13.435C28.2074 12.4609 27.928 11.4944 27.6033 10.5581C25.7609 10.9734 23.9939 11.5623 22.2647 12.2873ZM37.7974 11.1168C36.1059 9.886 33.161 9.81803 31.0693 9.99926C30.4275 10.0597 29.8007 10.1352 29.1815 10.2409C29.627 11.9701 29.9442 13.7824 30.1632 15.5644C30.2236 16.0553 30.2764 16.5461 30.3217 17.0369C32.1567 18.3433 34.0067 19.8233 35.6378 21.4241C35.6906 21.3637 35.7359 21.3033 35.7888 21.2429C37.3443 19.3023 39.2019 16.4177 39.2094 13.9334C39.2094 12.7403 38.6884 11.7511 37.7974 11.1168ZM34.573 22.6248C33.9085 21.8696 33.2063 21.1296 32.4663 20.4198C31.8169 19.8006 31.1373 19.2117 30.435 18.6529C30.5256 20.0423 30.5558 21.3788 30.5483 22.587C30.5483 23.8783 30.4803 25.1695 30.3671 26.4532C31.8773 25.2979 33.2818 24.0293 34.573 22.6248ZM29.0154 28.7714C27.9356 29.5265 26.8331 30.2363 25.7005 30.8933C24.7037 31.4747 23.6012 32.0788 22.4233 32.6753C24.1751 33.37 25.9723 33.9288 27.8299 34.2913C28.3887 32.479 28.7738 30.6365 29.0154 28.7714ZM15.1364 37.6062C16.0275 39.5091 17.5528 42.0236 19.4632 42.8769C20.46 43.33 21.5775 43.2847 22.6045 42.6881C24.749 41.4346 26.3197 38.3915 27.2258 36.0733C27.256 35.9827 27.2937 35.8921 27.3239 35.8091C25.1039 35.1672 22.9216 34.2837 20.9659 33.3851C18.8893 34.3517 16.6466 35.2276 14.404 35.8544C14.6229 36.4358 14.8646 37.0248 15.1364 37.6062ZM30.6767 34.1402C29.8158 35.6278 30.3293 37.5307 31.8169 38.3915C33.3045 39.2524 35.2073 38.7389 36.0682 37.2513C36.929 35.7637 36.4155 33.8609 34.9279 33C33.4404 32.1467 31.5375 32.6527 30.6767 34.1402Z" fill="#ED3E42"/>
</svg>
