<svg width="50" height="45" viewBox="0 0 50 45" fill="none" xmlns="http://www.w3.org/2000/svg">
<path d="M30.5314 36.4231C30.7212 36.4231 30.8635 36.5749 30.873 36.7552L30.8824 37.5332C30.8824 37.723 30.7306 37.8748 30.5504 37.8748C30.3606 37.8748 30.2183 37.723 30.2088 37.5427L30.1993 36.7647C30.1898 36.575 30.3417 36.4231 30.5314 36.4231ZM42.5902 24.3643C42.4005 24.3643 42.2487 24.5161 42.2487 24.7059C42.2487 24.8956 42.4005 25.0474 42.5902 25.0474H43.3682C43.558 25.0474 43.7098 24.8956 43.7098 24.7059C43.7098 24.5161 43.558 24.3643 43.3682 24.3643H42.5902ZM37.2392 13.7571C37.334 13.5958 37.2771 13.3871 37.1159 13.2922C36.9546 13.1973 36.7458 13.2543 36.6509 13.4155L36.2619 14.0892C36.1671 14.2505 36.224 14.4592 36.3853 14.5541C36.4422 14.5825 36.4992 14.6015 36.5561 14.6015C36.6699 14.6015 36.7838 14.5446 36.8502 14.4307L37.2392 13.7571ZM30.5314 12.9791C30.7212 12.9791 30.873 12.8273 30.873 12.6376V11.8596C30.873 11.6698 30.7212 11.518 30.5314 11.518C30.3417 11.518 30.1898 11.6698 30.1898 11.8596V12.6376C30.1993 12.8273 30.3511 12.9791 30.5314 12.9791ZM21.6984 22.3055L28.0551 24.222C28.0267 24.3833 28.0077 24.5446 28.0077 24.7059C28.0077 26.1006 29.1367 27.2391 30.5409 27.2391C31.2335 27.2391 31.8597 26.9639 32.3151 26.518L36.1766 29.0133C36.2619 29.0702 36.3568 29.0892 36.4517 29.0892C36.613 29.0892 36.7743 29.0038 36.8787 28.8615C37.0305 28.6243 36.964 28.3207 36.7269 28.1689L32.8843 25.6831C33.0077 25.3795 33.0741 25.0569 33.0741 24.7059C33.0741 23.482 32.2012 22.4573 31.0437 22.2201V14.6584C31.0437 14.3833 30.816 14.1556 30.5409 14.1556C30.2657 14.1556 30.038 14.3833 30.038 14.6584V22.2296C29.2031 22.4004 28.52 22.9791 28.2069 23.7381L21.8597 21.8216C21.7268 21.7837 21.5845 21.8596 21.5466 21.9924C21.4897 22.1157 21.5656 22.258 21.6984 22.3055ZM24.2126 34.981L23.8141 35.6546C23.7192 35.8159 23.7762 36.0247 23.9375 36.1196C23.9944 36.148 24.0513 36.167 24.1082 36.167C24.2221 36.167 24.3359 36.1101 24.4024 35.9962L24.8009 35.3226C24.8957 35.1613 24.8388 34.9526 24.6775 34.8577C24.5067 34.7628 24.3075 34.8197 24.2126 34.981ZM37.2487 35.6641L36.8597 34.9905C36.7648 34.8292 36.5561 34.7723 36.3948 34.8672C36.2335 34.9621 36.1766 35.1708 36.2714 35.3321L36.6604 36.0057C36.7268 36.11 36.8407 36.1765 36.9545 36.1765C37.0115 36.1765 37.0684 36.1575 37.1253 36.129C37.2866 36.0247 37.3435 35.8254 37.2487 35.6641ZM18.2828 43.7761C18.4062 44.1176 18.6244 44.4213 18.9375 44.649C19.2506 44.8767 19.6301 45 20.0191 45C20.6073 45 21.1671 44.7154 21.5181 44.241L23.1974 41.9355C25.4555 42.9032 27.9413 43.4345 30.5504 43.4345C33.1595 43.4345 35.6453 42.8937 37.9033 41.9355L39.5826 44.241C39.9242 44.7154 40.484 45 41.0817 45C41.4707 45 41.8502 44.8767 42.1633 44.649C42.9887 44.0512 43.169 42.8937 42.5713 42.0683L41.1671 40.1328C46.0722 36.7552 49.2885 31.1006 49.2885 24.7059C49.2885 18.3586 46.1101 12.7325 41.2714 9.34536L41.4707 9.04175L47.3056 12.9412L47.5807 12.5237C50.0475 8.833 49.0513 3.82352 45.3606 1.35673C44.0324 0.464889 42.4859 0 40.8919 0C38.1974 0 35.6927 1.33775 34.1936 3.57684L33.9185 3.9943L40.6263 8.48198L40.4175 8.78556C37.5523 7.00188 34.1652 5.96772 30.5409 5.96772C27.2961 5.96772 24.2411 6.79315 21.5751 8.25425L21.3379 7.89375L27.1728 3.9943L26.8976 3.57684C25.3986 1.33775 22.8938 0 20.1993 0C18.6054 0 17.0589 0.474376 15.7306 1.35673C12.0399 3.82352 11.0437 8.833 13.5105 12.5237L13.7857 12.9412L20.5029 8.45352L20.7117 8.7666C15.5124 11.9829 12.002 17.6755 11.8217 24.1841C11.9166 24.1841 12.0115 24.1841 12.1158 24.1841C13.7003 24.1841 15.2373 24.5256 16.632 25.1708C16.6225 25.019 16.6225 24.8672 16.6225 24.7059C16.6225 17.0303 22.8654 10.778 30.5504 10.778C38.2259 10.778 44.4783 17.0209 44.4783 24.7059C44.4783 32.3814 38.2259 38.6338 30.5504 38.6338C27.6851 38.6338 25.0191 37.7609 22.799 36.2713C22.5143 38.5768 21.4896 40.8065 19.7249 42.5712C19.2695 43.0171 18.7857 43.425 18.2828 43.7761ZM24.6775 14.5541C24.8388 14.4592 24.8957 14.2505 24.8009 14.0892L24.4119 13.4155C24.317 13.2543 24.1083 13.1973 23.947 13.2922C23.7857 13.3871 23.7287 13.5958 23.8236 13.7571L24.2126 14.4307C24.279 14.5351 24.3929 14.6015 24.5067 14.6015C24.5637 14.6015 24.6206 14.5825 24.6775 14.5541ZM40.6832 30.5693C40.5883 30.7306 40.6452 30.9393 40.8065 31.0342L41.4802 31.4232C41.5371 31.4516 41.594 31.4706 41.651 31.4706C41.7648 31.4706 41.8787 31.4137 41.9451 31.2998C42.0399 31.1385 41.983 30.9298 41.8217 30.8349L41.1481 30.4459C40.9773 30.351 40.7781 30.408 40.6832 30.5693ZM40.6832 18.8425C40.7496 18.9469 40.8635 19.0133 40.9773 19.0133C41.0342 19.0133 41.0912 18.9943 41.1481 18.9658L41.8217 18.5768C41.983 18.482 42.0399 18.2732 41.9451 18.112C41.8502 17.9507 41.6414 17.8937 41.4802 17.9886L40.8065 18.3776C40.6452 18.4725 40.5883 18.6812 40.6832 18.8425ZM18.4726 25.0474C18.6623 25.0474 18.8141 24.8956 18.8141 24.7154C18.8141 24.5256 18.6623 24.3738 18.4821 24.3738H17.6946C17.5048 24.3738 17.353 24.5256 17.353 24.7059C17.353 24.8956 17.5048 25.0474 17.6851 25.0474H18.4726ZM19.1272 18.1215C19.0323 18.2827 19.0893 18.4915 19.2506 18.5863L19.9242 18.9753C19.9811 19.0038 20.0381 19.0228 20.095 19.0228C20.2088 19.0228 20.3227 18.9658 20.3891 18.852C20.484 18.6907 20.427 18.482 20.2657 18.3871L19.5921 17.9981C19.4214 17.9032 19.2126 17.9602 19.1272 18.1215ZM2.5238 28.3681C2.58072 28.3112 2.62817 28.2543 2.6756 28.2068L2.70407 28.1784C2.76099 28.1214 2.81794 28.055 2.87487 27.9981C4.73445 26.1385 7.20123 25.1139 9.82931 25.1139C10.1993 25.1139 10.5788 25.1328 10.9489 25.1802C11.3189 25.1423 11.6889 25.1139 12.0684 25.1139C14.6965 25.1139 17.1633 26.1385 19.0229 27.9981C22.8559 31.8311 22.8559 38.0645 19.0229 41.8975C17.1633 43.7571 14.6965 44.7818 12.0684 44.7818C11.6984 44.7818 11.3189 44.7628 10.9489 44.7154C10.5788 44.7533 10.2088 44.7818 9.82931 44.7818C7.4574 44.7818 5.18036 43.9279 3.39668 42.3814L3.37771 42.4004L2.87487 41.8975C2.81794 41.8406 2.76099 41.7742 2.70407 41.7173L2.6756 41.6888C2.62817 41.6319 2.58073 41.5844 2.53329 41.5275L2.5238 41.518C0.891918 39.7154 7.41476e-05 37.3814 7.41476e-05 34.9431C-0.00941352 32.5142 0.891918 30.1803 2.5238 28.3681ZM17.1443 30.7875L5.66421 42.2675C6.92607 42.9886 8.35872 43.3681 9.82931 43.3681C12.0779 43.3681 14.1936 42.4952 15.7781 40.9013C18.4631 38.2163 19.0134 34.0797 17.1443 30.7875ZM16.7743 27.9981L17.2771 28.5009L17.2581 28.5199C20.6263 32.4004 20.4176 38.2637 16.7743 41.907C16.7553 41.926 16.7363 41.945 16.7079 41.9734C17.1728 41.6698 17.5997 41.3093 17.9982 40.9108C21.2809 37.6281 21.2809 32.2865 17.9982 29.0038C17.5997 28.6053 17.1633 28.2543 16.7079 27.9412C16.7363 27.9601 16.7553 27.9791 16.7743 27.9981ZM4.39287 41.3852C4.57313 41.537 4.76289 41.6888 4.96213 41.8311L16.6984 30.0949C16.5561 29.9051 16.4137 29.7059 16.2525 29.5256L4.39287 41.3852ZM15.076 28.3681L15.0286 28.3302C14.9432 28.2637 14.8578 28.1973 14.7724 28.1309L14.725 28.093C14.6396 28.0266 14.5447 27.9696 14.4593 27.9127L14.4118 27.8842C14.317 27.8178 14.2221 27.7609 14.1367 27.7135L14.0988 27.6945C14.0039 27.6376 13.8995 27.5806 13.8141 27.5332L13.7952 27.5237C13.7003 27.4763 13.6054 27.4289 13.4915 27.3719L13.4536 27.3529C13.3587 27.3055 13.2639 27.2676 13.1595 27.2201L13.1026 27.2011C13.0077 27.1632 12.9033 27.1252 12.8084 27.0873L12.7515 27.0683C12.6471 27.0304 12.5428 26.9924 12.4479 26.9639L12.4005 26.945C12.2866 26.907 12.1822 26.8786 12.0779 26.8501L12.0494 26.8406C11.9451 26.8121 11.8312 26.7837 11.7268 26.7552L11.6984 26.7457C11.594 26.7268 11.4897 26.6983 11.3663 26.6793L11.3189 26.6698C11.2145 26.6508 11.1102 26.6319 10.9963 26.6224L10.9394 26.6129C10.835 26.5939 10.7211 26.5844 10.6168 26.5749L10.5599 26.5655C10.4365 26.556 10.3322 26.5465 10.2278 26.5465H10.1898C10.057 26.537 9.94316 26.537 9.82931 26.537C7.58074 26.537 5.465 27.4099 3.88056 29.0038C3.83312 29.0512 3.77619 29.1081 3.72875 29.1556L3.70029 29.184C3.66234 29.2315 3.61489 29.2694 3.57694 29.3169L3.56745 29.3264C0.958338 32.2296 0.673707 36.499 2.88433 39.7154L2.89383 39.7344C2.90332 39.7533 2.9128 39.7628 2.92229 39.7818C2.96024 39.8292 2.98869 39.8767 3.02664 39.9241C3.07408 39.9905 3.12152 40.0569 3.17845 40.1233C3.20691 40.1613 3.23539 40.1897 3.25437 40.2182C3.3018 40.2751 3.34923 40.3321 3.38718 40.3795L15.2468 28.5199C15.1993 28.4725 15.1424 28.425 15.076 28.3681Z" fill="#ED3E42"/>
</svg>
