<svg width="150" height="30" viewBox="0 0 150 30" fill="none" xmlns="http://www.w3.org/2000/svg">
<path d="M14.9999 21.5875L20.1874 24.725C21.1374 25.3 22.2999 24.45 22.0499 23.375L20.6749 17.475L25.2624 13.5C26.0999 12.775 25.6499 11.4 24.5499 11.3125L18.5124 10.8L16.1499 5.22495C15.7249 4.21245 14.2749 4.21245 13.8499 5.22495L11.4874 10.7875L5.44991 11.3C4.34991 11.3875 3.89991 12.7625 4.73741 13.4875L9.32491 17.4625L7.94991 23.3625C7.69991 24.4375 8.86241 25.2875 9.81241 24.7125L14.9999 21.5875Z" fill="#ED3E42"/>
<path d="M44.9999 21.5875L50.1874 24.725C51.1374 25.3 52.2999 24.45 52.0499 23.375L50.6749 17.475L55.2624 13.5C56.0999 12.775 55.6499 11.4 54.5499 11.3125L48.5124 10.8L46.1499 5.22495C45.7249 4.21245 44.2749 4.21245 43.8499 5.22495L41.4874 10.7875L35.4499 11.3C34.3499 11.3875 33.8999 12.7625 34.7374 13.4875L39.3249 17.4625L37.9499 23.3625C37.6999 24.4375 38.8624 25.2875 39.8124 24.7125L44.9999 21.5875Z" fill="#ED3E42"/>
<path d="M74.9999 21.5875L80.1874 24.725C81.1374 25.3 82.2999 24.45 82.0499 23.375L80.6749 17.475L85.2624 13.5C86.0999 12.775 85.6499 11.4 84.5499 11.3125L78.5124 10.8L76.1499 5.22495C75.7249 4.21245 74.2749 4.21245 73.8499 5.22495L71.4874 10.7875L65.4499 11.3C64.3499 11.3875 63.8999 12.7625 64.7374 13.4875L69.3249 17.4625L67.9499 23.3625C67.6999 24.4375 68.8624 25.2875 69.8124 24.7125L74.9999 21.5875Z" fill="#ED3E42"/>
<path d="M105 21.5875L110.187 24.725C111.137 25.3 112.3 24.45 112.05 23.375L110.675 17.475L115.262 13.5C116.1 12.775 115.65 11.4 114.55 11.3125L108.512 10.8L106.15 5.22495C105.725 4.21245 104.275 4.21245 103.85 5.22495L101.487 10.7875L95.4499 11.3C94.3499 11.3875 93.8999 12.7625 94.7374 13.4875L99.3249 17.4625L97.9499 23.3625C97.6999 24.4375 98.8624 25.2875 99.8124 24.7125L105 21.5875Z" fill="#ED3E42"/>
<path d="M135 21.5875L140.187 24.725C141.137 25.3 142.3 24.45 142.05 23.375L140.675 17.475L145.262 13.5C146.1 12.775 145.65 11.4 144.55 11.3125L138.512 10.8L136.15 5.22495C135.725 4.21245 134.275 4.21245 133.85 5.22495L131.487 10.7875L125.45 11.3C124.35 11.3875 123.9 12.7625 124.737 13.4875L129.325 17.4625L127.95 23.3625C127.7 24.4375 128.862 25.2875 129.812 24.7125L135 21.5875Z" fill="#ED3E42"/>
</svg>
